# xmcd
# 
# Track frame offsets:
#     150
#     12591
#     24583
#     36275
#     55529
#     67586
#     83535
#     93719
#     101406
#     117365
#     129612
#     139710
#     148825
#     159669
#     170317
#     182708
#     198492
#     211227
#     220883
#     233141
#     251053
#     262285
#     273845
#     282425
#     292862
# 
# Disc length: 4042
# 
# Revision: 5
# Processed by: cddbd v1.5.2PL0 Copyright (c) Steve Scherf et al.
# Submitted via: fre:ac v1.0.31
# 
DISCID=710fc819
DTITLE=Johnny Cash - Bootleg Vol. 4  The Soul Of Truth Disc 1
DYEAR=2012
DGENRE=Country
TTITLE0=Wings In The Morning
TTITLE1=Gospel Boogie (A Wonderful Time Up There)
TTITLE2=Over The Next Hill (We'll Be Home) [w/Anita Carter]
TTITLE3=He's Alive [w/June Carter Cash]
TTITLE4=I've Got Jesus In My Soul
TTITLE5=When He Comes -[w/Rosanne Cash]
TTITLE6=I Was There When It Happened [w/Marshall Grant]
TTITLE7=I'm A New Born Man
TTITLE8=Strange Things Happening Every Day
TTITLE9=Children Go Where I Send Thee
TTITLE10=I'm Just An Old Chunk Of Coal
TTITLE11=Lay Me Down In Dixie [w/Cindy Cash]
TTITLE12=Don't Take Everybody To Be Your Friend
TTITLE13=You'll Get Yours And I'll Get Mine [w/Rodney Crowell]
TTITLE14=Oh Come, Angel Band
TTITLE15=This Train Is Bound For Glory [w/June Carter Cash]
TTITLE16=I'm Gonna Try To Be That Way [w/Jan Howard]
TTITLE17=What On Earth Will You Do (For Heaven's Sake)
TTITLE18=That's Enough
TTITLE19=The Greatest Cowboy Of Them All [w/Jack Routh]
TTITLE20=Didn't It Rain
TTITLE21=He Touched Me [w/Rodney Crowell]
TTITLE22=Way Worn Traveller [w/Helen Carter]
TTITLE23=I'll Have A New Life [w/June Carter Cash]
TTITLE24=Truth
EXTD=
EXTT0=
EXTT1=
EXTT2=
EXTT3=
EXTT4=
EXTT5=
EXTT6=
EXTT7=
EXTT8=
EXTT9=
EXTT10=
EXTT11=
EXTT12=
EXTT13=
EXTT14=
EXTT15=
EXTT16=
EXTT17=
EXTT18=
EXTT19=
EXTT20=
EXTT21=
EXTT22=
EXTT23=
EXTT24=
PLAYORDER=
